<?xml version="1.0" encoding="iso-8859-1"?>
<!-- Generator: Adobe Illustrator 16.0.0, SVG Export Plug-In . SVG Version: 6.00 Build 0)  -->
<!DOCTYPE svg PUBLIC "-//W3C//DTD SVG 1.1//EN" "http://www.w3.org/Graphics/SVG/1.1/DTD/svg11.dtd">
<svg version="1.1" id="Capa_1" xmlns="http://www.w3.org/2000/svg" xmlns:xlink="http://www.w3.org/1999/xlink" x="0px" y="0px"
	 width="920.223px" height="920.224px" viewBox="0 0 920.223 920.224" style="enable-background:new 0 0 920.223 920.224;"
	 xml:space="preserve">
<g>
	<path d="M903.528,17.075l-0.4-0.401C892.383,5.929,878.069,0,862.844,0s-29.539,5.93-40.305,16.695L403.628,435.607l-2.427-2.428
		l-40.244-40.245l-11.089,55.823l-6.989,35.185c-0.103-0.041-0.202-0.086-0.305-0.127c-20.002-8.112-41.127-12.226-62.788-12.226
		c-21.665,0-42.791,4.112-62.79,12.224c-20.721,8.401-39.302,20.736-55.226,36.661L21.505,660.74L0,682.244l21.504,21.504
		l110.66,110.659l16.15,16.15l20.012-11.01l40.438-22.244l-22.246,40.438l-11.009,20.012l16.15,16.15l24.815,24.815l21.504,21.505
		l21.504-21.505l140.267-140.267c15.922-15.922,28.257-34.503,36.659-55.226c8.111-20.001,12.224-41.125,12.224-62.789
		c0-21.663-4.112-42.787-12.224-62.788c-0.042-0.104-0.086-0.203-0.128-0.306l35.183-6.988l55.824-11.089l-40.244-40.244
		l-2.428-2.427L903.528,97.683c10.766-10.765,16.695-25.078,16.695-40.304S914.295,27.841,903.528,17.075z M378.246,736.95
		L237.979,877.215L213.165,852.4l72.751-132.247l-132.249,72.751L43.01,682.244l140.265-140.266
		c17.578-17.577,38.752-29.354,61.154-35.337l78.373,78.373l12.408,12.407l78.372,78.371
		C407.598,698.197,395.82,719.374,378.246,736.95z M371.091,590.295l-12.934-12.934l-15.294-15.294l-12.934-12.935l-47.094-47.095
		c18.469,0.41,36.872,4.551,53.982,12.416c4.784,2.198,9.464,4.693,14.019,7.475c4.684,2.859,9.23,6.027,13.615,9.504
		c4.099,3.249,8.058,6.758,11.846,10.545l1.949,1.948c3.788,3.788,7.297,7.748,10.546,11.847c3.476,4.385,6.644,8.932,9.504,13.614
		c2.781,4.556,5.275,9.234,7.474,14.019c7.865,17.111,12.005,35.514,12.416,53.984L371.091,590.295z M459.481,541.731l-37.919,7.531
		c-6.277-9.61-13.559-18.586-21.812-26.841l-1.951-1.95c-8.253-8.254-17.228-15.533-26.839-21.812l7.532-37.919l1.202-6.059
		l2.429,2.428l21.504,21.503l37.98,37.982l21.504,21.504l2.428,2.427L459.481,541.731z M882.024,76.18L463.112,495.093
		l-37.98-37.981L844.043,38.199c5.191-5.191,11.996-7.788,18.801-7.788s13.609,2.597,18.801,7.788l0.381,0.38
		C892.409,48.962,892.409,65.798,882.024,76.18z"/>
	<path d="M143.243,401.481l60.292-7.745l13.57-1.743l9.128,10.189l40.559,45.277l11.267-59.733l2.536-13.444l12.513-5.533
		l55.595-24.583l-53.329-29.174l-12.003-6.566l-1.396-13.61l-6.201-60.469l-44.225,41.703l-9.954,9.386l-13.375-2.878l-59.427-12.79
		l25.997,54.948l5.851,12.367l-6.871,11.832L143.243,401.481z M201.908,311.885l28.794,6.197l21.429-20.207l3.004,29.3
		l25.839,14.136l-26.938,11.912l-5.459,28.942l-19.652-21.938l-29.213,3.753l14.792-25.471L201.908,311.885z"/>
	<path d="M911.29,321.928l-60.746,2.175l-13.674,0.489l-8.154-10.986l-36.232-48.808l-16.703,58.446l-3.76,13.154l-12.969,4.362
		l-57.613,19.376l50.424,33.944l11.35,7.641l0.139,13.682l0.623,60.783l47.867-37.467l10.771-8.435l13.055,4.095l58,18.191
		l-20.84-57.102l-4.691-12.854l7.928-11.149L911.29,321.928z M844.647,405.757l-28.104-8.813l-23.193,18.154l-0.301-29.452
		l-24.434-16.448l27.918-9.389l8.092-28.319l17.555,23.649l29.436-1.055l-17.066,24.004L844.647,405.757z"/>
</g>
<g>
</g>
<g>
</g>
<g>
</g>
<g>
</g>
<g>
</g>
<g>
</g>
<g>
</g>
<g>
</g>
<g>
</g>
<g>
</g>
<g>
</g>
<g>
</g>
<g>
</g>
<g>
</g>
<g>
</g>
</svg>
